<?xml version="1.0" encoding="utf-8"?>
<!-- Generator: Adobe Illustrator 22.0.1, SVG Export Plug-In . SVG Version: 6.00 Build 0)  -->
<svg version="1.1" id="Layer_1" xmlns="http://www.w3.org/2000/svg" xmlns:xlink="http://www.w3.org/1999/xlink" x="0px" y="0px"
	 viewBox="0 0 600 282.7" style="enable-background:new 0 0 600 282.7;" xml:space="preserve">
<style type="text/css">
	.st0{fill:#878785;}
	.st1{fill-rule:evenodd;clip-rule:evenodd;fill:#878785;}
	.st2{fill-rule:evenodd;clip-rule:evenodd;fill:url(#SVGID_1_);}
</style>
<path class="st0" d="M556.6,130.9c28.9,0,29-43.8,0-43.8C527.5,87.1,527.8,131.1,556.6,130.9 M513.2,109.5c0-26.3,17.7-45,43.4-45
	c25.3,0.1,43.5,17.3,43.4,45c0,25.5-18,43.9-43.4,43.9C532.5,153.4,513.1,136.5,513.2,109.5z"/>
<path class="st0" d="M363.1,151.9c-2.4,0.3-5,0.5-7.8,0.5v0h-38.9c-2.5,0-4.5-2-4.5-4.5v-4v-8.4v-28.9c0-2.5,2-4.5,4.5-4.5h12.4
	c2.5,0,4.5,2,4.5,4.5v24.4h21.9v0h0c1,0,2.1,0,3.2-0.2c1-0.1,2.1-0.3,3.2-0.5l0,0l0,0c1-0.2,2-0.5,3-0.9c1-0.3,1.9-0.8,2.8-1.3
	c0.8-0.5,1.7-1,2.4-1.6c0.8-0.6,1.4-1.3,2.1-2c0.1-0.1,0.1-0.2,0.2-0.2c0.7-0.8,1.3-1.7,1.8-2.7c0.6-1,1-2.2,1.5-3.4
	c0.4-1.3,0.7-2.7,1-4.2h0c0.2-1.6,0.4-3.4,0.4-5.2c0-1.9-0.2-3.7-0.5-5.5c-0.3-1.5-0.6-2.9-1.1-4.2c0-0.1-0.1-0.2-0.1-0.3
	c-0.5-1.4-1.2-2.6-1.9-3.7c-0.7-1-1.5-2-2.4-2.8l0,0c-1-0.9-2-1.6-3.1-2.3c-1.1-0.6-2.3-1.2-3.6-1.6l0,0l0,0
	c-2.7-0.9-5.7-1.3-8.9-1.3h-38.9c-2.5,0-4.5-2-4.5-4.5V70.1c0-2.5,2-4.5,4.5-4.5h38.9v0c3.1,0,6,0.2,8.7,0.6c2.8,0.4,5.4,1,7.8,1.8
	c2.4,0.8,4.6,1.7,6.7,2.8c2.1,1.1,4.1,2.4,5.8,3.9c1.7,1.4,3.2,2.9,4.7,4.7c1.4,1.7,2.7,3.5,3.7,5.4l0,0l0,0c1.1,1.9,2,3.8,2.7,5.8
	c0.7,1.9,1.4,4,1.9,6.2c0.5,2.1,0.8,4.2,1.1,6.4c0.2,2.1,0.3,4.2,0.3,6.5v0c0,1.4-0.1,2.9-0.2,4.4c-0.1,1.6-0.3,3.1-0.6,4.6
	c-0.3,1.5-0.6,3.1-1.1,4.8c-0.5,1.6-1,3.2-1.6,4.7c-0.7,1.6-1.4,3.2-2.3,4.7c-0.9,1.6-1.9,3-2.9,4.5l0,0l0,0
	c-1.1,1.5-2.4,2.9-3.7,4.2c-1.4,1.3-2.9,2.5-4.5,3.7l0,0c-1.7,1.2-3.5,2.2-5.4,3.1c-1.9,0.9-3.9,1.6-6.1,2.3
	C368,151.1,365.7,151.6,363.1,151.9"/>
<path class="st0" d="M499.4,70.1V109h0c0,3.1-0.2,6-0.6,8.7c-0.4,2.8-1,5.4-1.8,7.8c-0.8,2.4-1.7,4.6-2.8,6.7
	c-1.1,2.1-2.4,4.1-3.9,5.8c-1.4,1.7-2.9,3.2-4.7,4.7c-1.7,1.4-3.5,2.7-5.4,3.7l0,0l0,0c-1.9,1.1-3.8,2-5.8,2.7
	c-1.9,0.7-4,1.4-6.2,1.9c-2.1,0.5-4.2,0.8-6.4,1.1c-2.1,0.2-4.2,0.3-6.5,0.3h0c-1.4,0-2.9-0.1-4.4-0.2c-1.6-0.1-3.1-0.3-4.6-0.6
	c-1.5-0.3-3.1-0.6-4.8-1.1c-1.6-0.5-3.2-1-4.7-1.6c-1.6-0.7-3.2-1.4-4.7-2.3c-1.6-0.9-3-1.9-4.5-2.9l0,0l0,0
	c-1.5-1.1-2.9-2.4-4.2-3.7c-1.2-1.3-2.4-2.7-3.5-4.2c-0.1-0.1-0.1-0.2-0.2-0.2c-1.2-1.7-2.2-3.5-3.1-5.4c-0.9-1.9-1.6-3.9-2.3-6.1
	c-0.6-2.2-1.1-4.5-1.5-7.1c-0.3-2.4-0.5-5-0.5-7.8h0V70.1c0-2.5,2-4.5,4.5-4.5h12.4c2.5,0,4.5,2,4.5,4.5V109h0v0c0,1,0,2.1,0.2,3.2
	c0.1,1,0.3,2.1,0.5,3.2l0,0l0,0c0.2,1,0.5,2,0.9,3c0.3,1,0.8,1.9,1.3,2.8c0.5,0.8,1,1.7,1.6,2.4c0.6,0.8,1.3,1.4,2,2.1
	c0.1,0.1,0.2,0.1,0.2,0.2c0.8,0.7,1.7,1.3,2.7,1.8c1,0.6,2.2,1,3.4,1.5c1.3,0.4,2.7,0.7,4.2,1v0c1.6,0.2,3.4,0.4,5.2,0.4
	c1.9,0,3.7-0.2,5.5-0.5c1.5-0.3,2.9-0.6,4.2-1.1c0.1,0,0.2-0.1,0.3-0.1c1.4-0.5,2.6-1.2,3.7-1.9c1-0.7,2-1.5,2.8-2.4l0,0
	c0.8-0.9,1.5-1.8,2.1-2.8l0.1-0.2c0.6-1.1,1.2-2.3,1.6-3.6l0,0l0,0c0.9-2.7,1.3-5.7,1.3-8.9V70.1c0-2.5,2-4.5,4.5-4.5h12.4
	C497.4,65.6,499.4,67.6,499.4,70.1"/>
<path class="st0" d="M552.8,216.9h4.7v-37.8h0.1l16.7,37.8h4.3l16.5-37.8h0.1v37.8h4.7v-42.4h-7.9l-15.7,35.7l-15.7-35.7h-7.9V216.9
	z M507.5,216.9h38.5v-4.5h-33.3v-15.2h27.3v-4.5h-27.3v-13.5h32.6v-4.5h-37.8V216.9z M475.1,216.9h5.1v-37.8h20.5v-4.5h-46v4.5h20.5
	V216.9z M407,208.2c0.7,0.8,1.5,1.7,2.4,2.6c0.9,0.9,1.9,1.8,3.1,2.6c1.2,0.8,2.6,1.6,4.2,2.3c1.6,0.7,3.5,1.3,5.6,1.7
	c2.1,0.4,4.6,0.6,7.3,0.6c3.6,0,6.7-0.4,9.4-1c2.7-0.7,4.9-1.6,6.6-2.8c1.8-1.2,3.1-2.6,3.9-4.1c0.9-1.6,1.3-3.2,1.3-5
	c0-1.9-0.4-3.5-1-4.8c-0.7-1.3-1.6-2.4-2.8-3.3c-1.2-0.9-2.6-1.6-4.1-2.1c-1.6-0.5-3.2-0.9-5-1.2c-1.8-0.3-3.6-0.5-5.5-0.7
	c-1.9-0.2-3.7-0.3-5.5-0.5c-1.8-0.2-3.5-0.4-5-0.7c-1.6-0.3-2.9-0.7-4.1-1.2c-1.2-0.5-2.1-1.2-2.8-2c-0.7-0.8-1-1.9-1-3.1
	c0-1.3,0.4-2.5,1.1-3.4c0.7-1,1.7-1.7,3-2.4c1.3-0.6,2.8-1.1,4.6-1.3c1.8-0.3,3.7-0.4,5.9-0.4c2.3,0,4.3,0.2,6.1,0.6
	c1.7,0.4,3.3,0.9,4.5,1.5c1.3,0.6,2.4,1.2,3.2,1.9c0.9,0.7,1.6,1.3,2.2,1.9c0.6,0.6,1,1.1,1.4,1.5l3.7-3c-0.7-1-1.7-2.1-2.9-3.1
	c-1.2-1-2.7-2-4.4-2.8c-1.7-0.8-3.7-1.5-6-2c-2.3-0.5-4.8-0.8-7.6-0.8c-2.9,0-5.6,0.2-8,0.7c-2.4,0.5-4.5,1.2-6.3,2.2
	c-1.8,1-3.2,2.3-4.1,3.9c-1,1.6-1.5,3.5-1.5,5.8c0,1.7,0.4,3.2,1,4.4c0.7,1.2,1.6,2.2,2.8,3c1.2,0.8,2.6,1.4,4.1,1.9
	c1.6,0.5,3.2,0.8,5,1.1c1.8,0.3,3.6,0.5,5.5,0.7c1.9,0.2,3.7,0.4,5.5,0.6c1.8,0.2,3.5,0.4,5,0.7c1.6,0.3,2.9,0.7,4.1,1.2
	c1.2,0.5,2.1,1.2,2.8,2c0.7,0.9,1,1.9,1,3.2c0,1.3-0.3,2.4-1,3.4c-0.6,1-1.5,1.8-2.6,2.4c-1.1,0.7-2.3,1.2-3.6,1.6
	c-1.3,0.4-2.7,0.7-4.1,0.8c-1.4,0.2-2.8,0.2-4.1,0.2c-2.5,0-4.7-0.2-6.6-0.6c-1.9-0.4-3.5-0.9-4.9-1.5c-1.4-0.6-2.6-1.3-3.5-2.1
	c-1-0.8-1.8-1.5-2.4-2.3c-0.7-0.8-1.2-1.5-1.7-2.1L407,208.2z M379.7,216.9h5.1v-17.1l21.9-25.2H400l-17.7,20.7l-17.7-20.7h-6.7
	l21.9,25.2V216.9z M309.9,208.2c0.7,0.8,1.5,1.7,2.4,2.6c0.9,0.9,1.9,1.8,3.1,2.6c1.2,0.8,2.6,1.6,4.2,2.3c1.6,0.7,3.5,1.3,5.6,1.7
	c2.1,0.4,4.6,0.6,7.3,0.6c3.6,0,6.7-0.4,9.4-1c2.7-0.7,4.9-1.6,6.6-2.8c1.8-1.2,3.1-2.6,3.9-4.1c0.9-1.6,1.3-3.2,1.3-5
	c0-1.9-0.4-3.5-1-4.8c-0.7-1.3-1.6-2.4-2.8-3.3c-1.2-0.9-2.6-1.6-4.1-2.1c-1.6-0.5-3.2-0.9-5-1.2c-1.8-0.3-3.6-0.5-5.5-0.7
	c-1.9-0.2-3.7-0.3-5.5-0.5c-1.8-0.2-3.5-0.4-5-0.7c-1.6-0.3-2.9-0.7-4.1-1.2c-1.2-0.5-2.1-1.2-2.8-2c-0.7-0.8-1-1.9-1-3.1
	c0-1.3,0.4-2.5,1.1-3.4c0.7-1,1.7-1.7,3-2.4c1.3-0.6,2.8-1.1,4.6-1.3c1.8-0.3,3.7-0.4,5.9-0.4c2.3,0,4.3,0.2,6.1,0.6
	c1.7,0.4,3.3,0.9,4.5,1.5c1.3,0.6,2.4,1.2,3.2,1.9c0.9,0.7,1.6,1.3,2.2,1.9c0.6,0.6,1,1.1,1.4,1.5l3.7-3c-0.7-1-1.7-2.1-2.9-3.1
	c-1.2-1-2.7-2-4.4-2.8c-1.7-0.8-3.7-1.5-6-2c-2.3-0.5-4.8-0.8-7.6-0.8c-2.9,0-5.6,0.2-8,0.7c-2.4,0.5-4.5,1.2-6.3,2.2
	c-1.8,1-3.2,2.3-4.1,3.9c-1,1.6-1.5,3.5-1.5,5.8c0,1.7,0.4,3.2,1,4.4c0.7,1.2,1.6,2.2,2.8,3c1.2,0.8,2.6,1.4,4.1,1.9
	c1.6,0.5,3.2,0.8,5,1.1c1.8,0.3,3.6,0.5,5.5,0.7c1.9,0.2,3.7,0.4,5.5,0.6c1.8,0.2,3.5,0.4,5,0.7c1.6,0.3,2.9,0.7,4.1,1.2
	c1.2,0.5,2.1,1.2,2.8,2c0.7,0.9,1,1.9,1,3.2c0,1.3-0.3,2.4-1,3.4c-0.6,1-1.5,1.8-2.6,2.4c-1.1,0.7-2.3,1.2-3.6,1.6
	c-1.3,0.4-2.7,0.7-4.1,0.8c-1.4,0.2-2.8,0.2-4.1,0.2c-2.5,0-4.7-0.2-6.6-0.6c-1.9-0.4-3.5-0.9-4.9-1.5c-1.4-0.6-2.6-1.3-3.5-2.1
	c-1-0.8-1.8-1.5-2.4-2.3c-0.7-0.8-1.2-1.5-1.7-2.1L309.9,208.2z"/>
<path class="st1" d="M166.9,206.1c32,0.3,31.2-0.5,49.7-31.9c19.7-33.5,19.7-30.9,0.6-64.7c-18-31.8-17.1-32.6-49.1-32.8
	c10.1,2.9,14,10.7,25.9,31.8c19.6,34.7,19.6,32.1-0.6,66.4C181.1,195.6,177.1,203.3,166.9,206.1"/>
<path class="st1" d="M135,58.2c-15.7-27.9-16-26.8-52.5-27.1c-38.9-0.4-36.6-1.6-56.4,31.9C7.6,94.4,6.5,94,22.2,121.9
	c-2.5-10.2,2.3-17.4,14.6-38.3c20.2-34.3,17.9-33,57.8-32.7C118.8,51.1,127.5,50.7,135,58.2"/>
<path class="st1" d="M22.9,159.8c-16.3,27.6-15.2,27.2,2.8,59c19.1,33.8,16.9,32.5,55.8,32.9c36.5,0.3,36.7,1.5,53-26.1
	c-7.6,7.3-16.3,6.7-40.5,6.5c-39.8-0.4-37.6,1-57.2-33.7C24.8,177.3,20.2,170,22.9,159.8"/>
<path class="st1" d="M216.4,193.1c25.6,0.3,25-0.4,39.8-25.5c15.8-26.8,15.8-24.7,0.5-51.8c-14.4-25.4-13.7-26.1-39.3-26.3
	c8.1,2.4,11.2,8.6,20.7,25.4c15.7,27.8,15.7,25.7-0.5,53.1C227.7,184.8,224.5,190.9,216.4,193.1"/>
<path class="st1" d="M99,21.8C86.4-0.5,86.2,0.4,57,0.1C25.9-0.2,27.7-1.2,11.9,25.6C-2.9,50.7-3.8,50.5,8.8,72.8
	c-2-8.2,1.8-14,11.7-30.7C36.7,14.6,34.8,15.7,66.7,16C86.1,16.1,93,15.8,99,21.8"/>
<path class="st1" d="M9.3,209.1c-13,22.1-12.1,21.8,2.2,47.2c15.3,27.1,13.5,26,44.6,26.3c29.2,0.3,29.4,1.2,42.4-20.9
	c-6.1,5.8-13,5.4-32.4,5.2c-31.9-0.3-30.1,0.8-45.8-27C10.9,223.1,7.1,217.3,9.3,209.1"/>
<radialGradient id="SVGID_1_" cx="108.2424" cy="141.3361" r="79.3531" gradientUnits="userSpaceOnUse">
	<stop  offset="0" style="stop-color:#EC6E00"/>
	<stop  offset="1" style="stop-color:#CA5E00"/>
</radialGradient>
<path class="st2" d="M108.9,65.6c-45.5-0.4-42.9-1.9-66,37.3C19.9,142,19.9,139,42.3,178.6c22.4,39.6,19.8,38.1,65.3,38.5
	c45.5,0.4,42.9,1.9,66-37.3c23.1-39.2,23.1-36.2,0.7-75.8C151.8,64.5,154.4,66,108.9,65.6"/>
</svg>
